M48
; DRILL file {KiCad 5.1.12-84ad8e8a86~92~ubuntu20.04.1} date 2022-06-06T20:50:26 CEST
; FORMAT={-:-/ absolute / inch / decimal}
; #@! TF.CreationDate,2022-06-06T20:50:26+02:00
; #@! TF.GenerationSoftware,Kicad,Pcbnew,5.1.12-84ad8e8a86~92~ubuntu20.04.1
; #@! TF.FileFunction,Plated,1,2,PTH
FMAT,2
INCH
T1C0.0079
T2C0.0157
T3C0.0315
T4C0.0354
T5C0.0394
T6C0.0748
T7C0.0787
T8C0.0866
%
G90
G05
T1
X9.6586Y-7.1859
X9.6586Y-7.239
X9.6586Y-7.2921
X9.7334Y-7.1859
X9.7334Y-7.239
X9.7334Y-7.2921
T2
X2.0669Y-9.6654
X2.0669Y-9.8583
X2.752Y-8.0906
X2.7522Y-1.8799
X2.7522Y-3.4737
X2.7522Y-5.046
X2.7522Y-6.6187
X3.0315Y-8.0906
X3.2244Y-8.185
X4.2457Y-9.8543
X6.14Y-4.0525
X6.249Y-4.202
X6.3755Y-3.949
X6.5551Y-7.5315
X6.622Y-8.4783
X6.656Y-8.216
X6.6713Y-8.0256
X6.686Y-3.9295
X6.6929Y-8.8346
X6.6949Y-7.3917
X6.7142Y-3.9858
X6.7146Y-8.3386
X6.7776Y-7.8957
X6.8125Y-4.1435
X6.816Y-3.993
X6.8189Y-7.2677
X6.8451Y-8.6824
X6.8622Y-8.1516
X6.8898Y-8.0315
X6.8957Y-8.2421
X6.927Y-8.043
X6.9508Y-8.2972
X6.9626Y-7.124
X6.9764Y-7.4252
X6.9937Y-3.9987
X6.9955Y-4.0425
X6.9955Y-4.144
X6.998Y-8.3445
X7.0079Y-8.622
X7.0425Y-4.69
X7.0551Y-8.4173
X7.063Y-8.5886
X7.068Y-3.486
X7.068Y-3.8885
X7.0748Y-8.063
X7.1181Y-7.2795
X7.1299Y-7.8307
X7.1535Y-7.937
X7.277Y-4.031
X7.2805Y-9.2274
X7.34Y-8.552
X7.389Y-7.997
X7.4505Y-8.1095
X7.464Y-8.678
X7.4675Y-4.57
X7.472Y-8.532
X7.478Y-8.082
X7.504Y-4.068
X7.504Y-7.887
X7.524Y-6.453
X7.6035Y-7.9565
X7.611Y-8.671
X7.6417Y-9.2677
X7.67Y-7.721
X7.6985Y-8.9135
X7.703Y-6.4525
X7.72Y-7.275
X7.7677Y-9.0472
X7.81Y-7.828
X7.822Y-3.609
X7.835Y-7.16
X7.8915Y-4.3105
X7.915Y-5.0225
X7.933Y-9.114
X7.99Y-7.005
X7.997Y-8.601
X8.015Y-4.5425
X8.0385Y-8.5595
X8.05Y-7.901
X8.051Y-4.466
X8.0603Y-4.8125
X8.0775Y-8.7865
X8.09Y-8.112
X8.091Y-7.942
X8.098Y-8.5
X8.1125Y-6.45
X8.133Y-7.984
X8.173Y-8.882
X8.241Y-8.745
X8.26Y-8.576
X8.2776Y-7.6673
X8.29Y-8.694
X8.3071Y-6.448
X8.355Y-8.408
X8.396Y-3.5195
X8.455Y-6.448
X8.4843Y-4.9055
X8.536Y-8.318
X8.5425Y-3.16
X8.622Y-5.0433
X8.6417Y-8.7835
X8.6417Y-8.8858
X8.6417Y-9.0315
X8.6417Y-9.3583
X8.8215Y-9.0125
X9.0311Y-7.161
X9.095Y-9.0575
X9.163Y-7.4154
X9.18Y-8.185
X9.18Y-8.655
X9.21Y-9.05
X9.225Y-7.915
X9.2375Y-9.575
X9.24Y-8.13
X9.27Y-7.995
X9.29Y-8.13
X9.29Y-8.935
X9.2901Y-4.701
X9.307Y-7.293
X9.34Y-8.935
X9.34Y-9.05
X9.345Y-9.47
X9.363Y-7.415
X9.365Y-8.465
X9.385Y-9.5475
X9.406Y-7.349
X9.415Y-8.885
X9.415Y-9.325
X9.45Y-7.166
X9.451Y-7.481
X9.4681Y-4.701
X9.4965Y-7.6755
X9.59Y-8.17
X9.6Y-8.885
X9.6Y-9.325
X9.65Y-4.5
X9.65Y-8.635
X9.655Y-2.896
X9.655Y-3.0295
X9.715Y-8.17
X9.7425Y-7.779
X9.775Y-8.595
X9.835Y-9.315
X9.84Y-8.17
X9.8446Y-8.736
X9.8536Y-3.011
X9.8636Y-3.136
X9.9Y-8.595
X9.9121Y-3.132
X9.9156Y-3.0045
X9.94Y-7.245
X9.9646Y-8.736
X9.965Y-8.17
X9.9666Y-3.1845
X9.9791Y-2.8875
X10.025Y-8.595
X10.0475Y-3.5325
X10.079Y-4.4375
X10.1Y-3.5
X10.1021Y-2.7556
X10.1065Y-4.093
X10.1186Y-3.132
X10.1431Y-3.1065
X10.1496Y-3.2215
X10.15Y-8.1705
X10.15Y-8.595
X10.1714Y-3.0107
X10.2098Y-3.3434
X10.2151Y-8.7275
X10.2349Y-2.8832
X10.275Y-8.213
X10.275Y-8.59
X10.3401Y-8.7305
X10.35Y-9.17
X10.35Y-9.265
X10.35Y-9.36
X10.35Y-9.455
X10.35Y-9.55
X10.4Y-8.404
X10.4Y-8.59
X10.4116Y-7.337
X10.455Y-9.31
X10.465Y-8.1194
X10.525Y-9.485
X10.5526Y-8.9185
T3
X10.6Y-2.1614
X10.6Y-2.2614
X10.6Y-2.3614
X10.6Y-2.4614
X10.6Y-2.5614
X10.6Y-2.6614
X10.6Y-2.7614
X10.6Y-2.8614
X10.6Y-2.9614
X10.6Y-3.0614
X10.6Y-3.1614
X10.6Y-3.2614
X10.6Y-3.3614
X10.6Y-3.4614
X10.6Y-3.5614
X10.6Y-3.6614
X10.6Y-3.7614
X10.6Y-3.8614
X10.6Y-3.9614
X10.6Y-4.0614
X10.6Y-4.1614
X10.6Y-4.2614
X10.6Y-4.3614
X10.6Y-4.4614
X10.6Y-4.5614
X10.6Y-7.1929
X10.6Y-7.2929
X10.6Y-7.3929
X10.6Y-7.4929
X10.6Y-7.5929
X10.6Y-7.6929
X10.6Y-7.7929
X10.6Y-7.8929
X10.6Y-7.9929
X10.6Y-8.0929
X10.6Y-8.1929
X10.6Y-8.2929
X10.6Y-8.3929
X10.6Y-8.4929
X10.6Y-8.5929
X10.6Y-8.6929
X10.6Y-8.7929
X10.6Y-8.8929
X10.6Y-8.9929
X10.6Y-9.0929
X10.6Y-9.1929
X10.6Y-9.2929
X10.6Y-9.3929
X10.6Y-9.4929
X10.6Y-9.5929
X10.675Y-2.2114
X10.675Y-2.3114
X10.675Y-2.4114
X10.675Y-2.5114
X10.675Y-2.6114
X10.675Y-2.7114
X10.675Y-2.8114
X10.675Y-2.9114
X10.675Y-3.0114
X10.675Y-3.1114
X10.675Y-3.2114
X10.675Y-3.3114
X10.675Y-3.4114
X10.675Y-3.5114
X10.675Y-3.6114
X10.675Y-3.7114
X10.675Y-3.8114
X10.675Y-3.9114
X10.675Y-4.0114
X10.675Y-4.1114
X10.675Y-4.2114
X10.675Y-4.3114
X10.675Y-4.4114
X10.675Y-4.5114
X10.675Y-4.6114
X10.675Y-7.2429
X10.675Y-7.3429
X10.675Y-7.4429
X10.675Y-7.5429
X10.675Y-7.6429
X10.675Y-7.7429
X10.675Y-7.8429
X10.675Y-7.9429
X10.675Y-8.0429
X10.675Y-8.1429
X10.675Y-8.2429
X10.675Y-8.3429
X10.675Y-8.4429
X10.675Y-8.5429
X10.675Y-8.6429
X10.675Y-8.7429
X10.675Y-8.8429
X10.675Y-8.9429
X10.675Y-9.0429
X10.675Y-9.1429
X10.675Y-9.2429
X10.675Y-9.3429
X10.675Y-9.4429
X10.675Y-9.5429
X10.675Y-9.6429
X10.75Y-2.1614
X10.75Y-2.2614
X10.75Y-2.3614
X10.75Y-2.4614
X10.75Y-2.5614
X10.75Y-2.6614
X10.75Y-2.7614
X10.75Y-2.8614
X10.75Y-2.9614
X10.75Y-3.0614
X10.75Y-3.1614
X10.75Y-3.2614
X10.75Y-3.3614
X10.75Y-3.4614
X10.75Y-3.5614
X10.75Y-3.6614
X10.75Y-3.7614
X10.75Y-3.8614
X10.75Y-3.9614
X10.75Y-4.0614
X10.75Y-4.1614
X10.75Y-4.2614
X10.75Y-4.3614
X10.75Y-4.4614
X10.75Y-4.5614
X10.75Y-7.1929
X10.75Y-7.2929
X10.75Y-7.3929
X10.75Y-7.4929
X10.75Y-7.5929
X10.75Y-7.6929
X10.75Y-7.7929
X10.75Y-7.8929
X10.75Y-7.9929
X10.75Y-8.0929
X10.75Y-8.1929
X10.75Y-8.2929
X10.75Y-8.3929
X10.75Y-8.4929
X10.75Y-8.5929
X10.75Y-8.6929
X10.75Y-8.7929
X10.75Y-8.8929
X10.75Y-8.9929
X10.75Y-9.0929
X10.75Y-9.1929
X10.75Y-9.2929
X10.75Y-9.3929
X10.75Y-9.4929
X10.75Y-9.5929
X10.825Y-2.2114
X10.825Y-2.3114
X10.825Y-2.4114
X10.825Y-2.5114
X10.825Y-2.6114
X10.825Y-2.7114
X10.825Y-2.8114
X10.825Y-2.9114
X10.825Y-3.0114
X10.825Y-3.1114
X10.825Y-3.2114
X10.825Y-3.3114
X10.825Y-3.4114
X10.825Y-3.5114
X10.825Y-3.6114
X10.825Y-3.7114
X10.825Y-3.8114
X10.825Y-3.9114
X10.825Y-4.0114
X10.825Y-4.1114
X10.825Y-4.2114
X10.825Y-4.3114
X10.825Y-4.4114
X10.825Y-4.5114
X10.825Y-4.6114
X10.825Y-7.2429
X10.825Y-7.3429
X10.825Y-7.4429
X10.825Y-7.5429
X10.825Y-7.6429
X10.825Y-7.7429
X10.825Y-7.8429
X10.825Y-7.9429
X10.825Y-8.0429
X10.825Y-8.1429
X10.825Y-8.2429
X10.825Y-8.3429
X10.825Y-8.4429
X10.825Y-8.5429
X10.825Y-8.6429
X10.825Y-8.7429
X10.825Y-8.8429
X10.825Y-8.9429
X10.825Y-9.0429
X10.825Y-9.1429
X10.825Y-9.2429
X10.825Y-9.3429
X10.825Y-9.4429
X10.825Y-9.5429
X10.825Y-9.6429
T4
X2.5272Y-2.857
X2.5272Y-2.957
X2.5322Y-2.0699
X2.5322Y-2.1699
X2.5339Y-8.3606
X2.5339Y-8.4606
X2.5357Y-7.578
X2.5357Y-7.678
X2.5362Y-3.644
X2.5362Y-3.744
X2.5362Y-4.43
X2.5362Y-4.53
X2.5362Y-5.217
X2.5362Y-5.317
X2.5362Y-6.791
X2.5362Y-6.891
X2.5362Y-6.004
X2.5362Y-6.104
X2.5365Y-9.1468
X2.5365Y-9.2468
T5
X6.3839Y-7.9429
X6.3839Y-8.0429
X6.3839Y-8.1429
X6.3839Y-8.2429
X6.3839Y-8.3429
X6.3839Y-8.4429
X6.3839Y-8.5429
X6.4135Y-7.1301
X6.4843Y-7.0594
X6.4843Y-7.2008
X6.555Y-6.9887
X6.555Y-7.1301
X6.6257Y-6.9179
X6.6257Y-7.0594
X6.6964Y-6.8472
X6.6964Y-6.9887
X6.7671Y-6.9179
X10.0061Y-9.8375
X10.1061Y-9.8375
X10.2061Y-9.8375
X10.3061Y-9.8375
X10.31Y-7.6475
X10.4061Y-9.8375
X10.41Y-7.6475
T6
X2.2299Y-1.3878
X2.2299Y-1.6831
X2.2299Y-10.124
X2.2299Y-10.4193
X2.4268Y-1.3878
X2.4268Y-1.6831
X2.4268Y-10.124
X2.4268Y-10.4193
T7
X2.3272Y-2.657
X2.3272Y-3.057
X2.3322Y-1.8699
X2.3322Y-2.2699
X2.3339Y-8.1606
X2.3339Y-8.5606
X2.3357Y-7.378
X2.3357Y-7.778
X2.3362Y-3.444
X2.3362Y-3.844
X2.3362Y-4.23
X2.3362Y-4.63
X2.3362Y-5.017
X2.3362Y-5.417
X2.3362Y-6.591
X2.3362Y-6.991
X2.3362Y-5.804
X2.3362Y-6.204
X2.3365Y-8.9468
X2.3365Y-9.3468
T8
X10.825Y-1.9614
X10.825Y-4.8114
X10.825Y-6.9929
X10.825Y-9.8429
T0
M30
