%TF.GenerationSoftware,KiCad,Pcbnew,5.1.10-88a1d61d58~88~ubuntu20.04.1*%
%TF.CreationDate,2021-06-01T23:58:10+02:00*%
%TF.ProjectId,bkm-68x-simple,626b6d2d-3638-4782-9d73-696d706c652e,rev?*%
%TF.SameCoordinates,Original*%
%TF.FileFunction,Soldermask,Bot*%
%TF.FilePolarity,Negative*%
%FSLAX46Y46*%
G04 Gerber Fmt 4.6, Leading zero omitted, Abs format (unit mm)*
G04 Created by KiCad (PCBNEW 5.1.10-88a1d61d58~88~ubuntu20.04.1) date 2021-06-01 23:58:10*
%MOMM*%
%LPD*%
G01*
G04 APERTURE LIST*
%ADD10C,3.200000*%
%ADD11C,1.400000*%
%ADD12C,2.300000*%
%ADD13C,1.800000*%
%ADD14C,1.500000*%
%ADD15R,1.700000X1.700000*%
%ADD16O,1.700000X1.700000*%
%ADD17C,0.100000*%
%ADD18C,2.600000*%
G04 APERTURE END LIST*
D10*
%TO.C,CN985*%
X274955000Y-122210000D03*
X274955000Y-49820000D03*
D11*
X274955000Y-56170000D03*
X274955000Y-58710000D03*
X274955000Y-61250000D03*
X274955000Y-63790000D03*
X274955000Y-66330000D03*
X274955000Y-68870000D03*
X274955000Y-71410000D03*
X274955000Y-73950000D03*
X274955000Y-76490000D03*
X274955000Y-79030000D03*
X274955000Y-81570000D03*
X274955000Y-84110000D03*
X274955000Y-86650000D03*
X274955000Y-89190000D03*
X274955000Y-91730000D03*
X274955000Y-94270000D03*
X274955000Y-96810000D03*
X274955000Y-99350000D03*
X274955000Y-101890000D03*
X274955000Y-104430000D03*
X274955000Y-106970000D03*
X274955000Y-109510000D03*
X274955000Y-112050000D03*
X274955000Y-114590000D03*
X274955000Y-117130000D03*
X269240000Y-54900000D03*
X269240000Y-57440000D03*
X269240000Y-59980000D03*
X269240000Y-62520000D03*
X269240000Y-65060000D03*
X269240000Y-67600000D03*
X269240000Y-70140000D03*
X269240000Y-72680000D03*
X269240000Y-75220000D03*
X269240000Y-77760000D03*
X269240000Y-80300000D03*
X269240000Y-82840000D03*
X269240000Y-85380000D03*
X269240000Y-87920000D03*
X269240000Y-90460000D03*
X269240000Y-93000000D03*
X269240000Y-95540000D03*
X269240000Y-98080000D03*
X269240000Y-100620000D03*
X269240000Y-103160000D03*
X269240000Y-105700000D03*
X269240000Y-108240000D03*
X269240000Y-110780000D03*
X269240000Y-113320000D03*
X269240000Y-115860000D03*
X271145000Y-56170000D03*
X271145000Y-58710000D03*
X271145000Y-61250000D03*
X271145000Y-63790000D03*
X271145000Y-66330000D03*
X271145000Y-68870000D03*
X271145000Y-71410000D03*
X271145000Y-73950000D03*
X271145000Y-76490000D03*
X271145000Y-79030000D03*
X271145000Y-81570000D03*
X271145000Y-84110000D03*
X271145000Y-86650000D03*
X271145000Y-89190000D03*
X271145000Y-91730000D03*
X271145000Y-94270000D03*
X271145000Y-96810000D03*
X271145000Y-99350000D03*
X271145000Y-101890000D03*
X271145000Y-104430000D03*
X271145000Y-106970000D03*
X271145000Y-109510000D03*
X271145000Y-112050000D03*
X271145000Y-114590000D03*
X271145000Y-117130000D03*
X273050000Y-54900000D03*
X273050000Y-57440000D03*
X273050000Y-59980000D03*
X273050000Y-62520000D03*
X273050000Y-65060000D03*
X273050000Y-67600000D03*
X273050000Y-70140000D03*
X273050000Y-72680000D03*
X273050000Y-75220000D03*
X273050000Y-77760000D03*
X273050000Y-80300000D03*
X273050000Y-82840000D03*
X273050000Y-85380000D03*
X273050000Y-87920000D03*
X273050000Y-90460000D03*
X273050000Y-93000000D03*
X273050000Y-95540000D03*
X273050000Y-98080000D03*
X273050000Y-100620000D03*
X273050000Y-103160000D03*
X273050000Y-105700000D03*
X273050000Y-108240000D03*
X273050000Y-110780000D03*
X273050000Y-113320000D03*
X273050000Y-115860000D03*
%TD*%
D10*
%TO.C,CN986*%
X274955000Y-250010000D03*
X274955000Y-177620000D03*
D11*
X274955000Y-183970000D03*
X274955000Y-186510000D03*
X274955000Y-189050000D03*
X274955000Y-191590000D03*
X274955000Y-194130000D03*
X274955000Y-196670000D03*
X274955000Y-199210000D03*
X274955000Y-201750000D03*
X274955000Y-204290000D03*
X274955000Y-206830000D03*
X274955000Y-209370000D03*
X274955000Y-211910000D03*
X274955000Y-214450000D03*
X274955000Y-216990000D03*
X274955000Y-219530000D03*
X274955000Y-222070000D03*
X274955000Y-224610000D03*
X274955000Y-227150000D03*
X274955000Y-229690000D03*
X274955000Y-232230000D03*
X274955000Y-234770000D03*
X274955000Y-237310000D03*
X274955000Y-239850000D03*
X274955000Y-242390000D03*
X274955000Y-244930000D03*
X269240000Y-182700000D03*
X269240000Y-185240000D03*
X269240000Y-187780000D03*
X269240000Y-190320000D03*
X269240000Y-192860000D03*
X269240000Y-195400000D03*
X269240000Y-197940000D03*
X269240000Y-200480000D03*
X269240000Y-203020000D03*
X269240000Y-205560000D03*
X269240000Y-208100000D03*
X269240000Y-210640000D03*
X269240000Y-213180000D03*
X269240000Y-215720000D03*
X269240000Y-218260000D03*
X269240000Y-220800000D03*
X269240000Y-223340000D03*
X269240000Y-225880000D03*
X269240000Y-228420000D03*
X269240000Y-230960000D03*
X269240000Y-233500000D03*
X269240000Y-236040000D03*
X269240000Y-238580000D03*
X269240000Y-241120000D03*
X269240000Y-243660000D03*
X271145000Y-183970000D03*
X271145000Y-186510000D03*
X271145000Y-189050000D03*
X271145000Y-191590000D03*
X271145000Y-194130000D03*
X271145000Y-196670000D03*
X271145000Y-199210000D03*
X271145000Y-201750000D03*
X271145000Y-204290000D03*
X271145000Y-206830000D03*
X271145000Y-209370000D03*
X271145000Y-211910000D03*
X271145000Y-214450000D03*
X271145000Y-216990000D03*
X271145000Y-219530000D03*
X271145000Y-222070000D03*
X271145000Y-224610000D03*
X271145000Y-227150000D03*
X271145000Y-229690000D03*
X271145000Y-232230000D03*
X271145000Y-234770000D03*
X271145000Y-237310000D03*
X271145000Y-239850000D03*
X271145000Y-242390000D03*
X271145000Y-244930000D03*
X273050000Y-182700000D03*
X273050000Y-185240000D03*
X273050000Y-187780000D03*
X273050000Y-190320000D03*
X273050000Y-192860000D03*
X273050000Y-195400000D03*
X273050000Y-197940000D03*
X273050000Y-200480000D03*
X273050000Y-203020000D03*
X273050000Y-205560000D03*
X273050000Y-208100000D03*
X273050000Y-210640000D03*
X273050000Y-213180000D03*
X273050000Y-215720000D03*
X273050000Y-218260000D03*
X273050000Y-220800000D03*
X273050000Y-223340000D03*
X273050000Y-225880000D03*
X273050000Y-228420000D03*
X273050000Y-230960000D03*
X273050000Y-233500000D03*
X273050000Y-236040000D03*
X273050000Y-238580000D03*
X273050000Y-241120000D03*
X273050000Y-243660000D03*
%TD*%
D12*
%TO.C,SW1*%
X57341400Y-243621100D03*
X57341400Y-236621100D03*
D13*
X54791400Y-242371100D03*
X54791400Y-237871100D03*
%TD*%
D12*
%TO.C,SW2*%
X57341400Y-233270600D03*
X57341400Y-226270600D03*
D13*
X54791400Y-232020600D03*
X54791400Y-227520600D03*
%TD*%
D14*
%TO.C,J1*%
X64418000Y-69215000D03*
D10*
X59338000Y-61595000D03*
X59338000Y-71755000D03*
D14*
X64418000Y-66675000D03*
%TD*%
%TO.C,J2*%
X64519600Y-109196800D03*
D10*
X59439600Y-101576800D03*
X59439600Y-111736800D03*
D14*
X64519600Y-106656800D03*
%TD*%
%TO.C,J3*%
X64519600Y-149151000D03*
D10*
X59439600Y-141531000D03*
X59439600Y-151691000D03*
D14*
X64519600Y-146611000D03*
%TD*%
%TO.C,J4*%
X64519600Y-189130600D03*
D10*
X59439600Y-181510600D03*
X59439600Y-191670600D03*
D14*
X64519600Y-186590600D03*
%TD*%
D15*
%TO.C,J12*%
X254156000Y-249872500D03*
D16*
X256696000Y-249872500D03*
X259236000Y-249872500D03*
X261776000Y-249872500D03*
X264316000Y-249872500D03*
%TD*%
D17*
%TO.C,J14*%
G36*
X173439482Y-193497200D02*
G01*
X172237400Y-194699282D01*
X171035318Y-193497200D01*
X172237400Y-192295118D01*
X173439482Y-193497200D01*
G37*
G36*
G01*
X171042390Y-192302190D02*
X171042390Y-192302190D01*
G75*
G02*
X169840308Y-192302190I-601041J601041D01*
G01*
X169840308Y-192302190D01*
G75*
G02*
X169840308Y-191100108I601041J601041D01*
G01*
X169840308Y-191100108D01*
G75*
G02*
X171042390Y-191100108I601041J-601041D01*
G01*
X171042390Y-191100108D01*
G75*
G02*
X171042390Y-192302190I-601041J-601041D01*
G01*
G37*
G36*
G01*
X174634492Y-192302190D02*
X174634492Y-192302190D01*
G75*
G02*
X173432410Y-192302190I-601041J601041D01*
G01*
X173432410Y-192302190D01*
G75*
G02*
X173432410Y-191100108I601041J601041D01*
G01*
X173432410Y-191100108D01*
G75*
G02*
X174634492Y-191100108I601041J-601041D01*
G01*
X174634492Y-191100108D01*
G75*
G02*
X174634492Y-192302190I-601041J-601041D01*
G01*
G37*
G36*
G01*
X172838441Y-190506139D02*
X172838441Y-190506139D01*
G75*
G02*
X171636359Y-190506139I-601041J601041D01*
G01*
X171636359Y-190506139D01*
G75*
G02*
X171636359Y-189304057I601041J601041D01*
G01*
X171636359Y-189304057D01*
G75*
G02*
X172838441Y-189304057I601041J-601041D01*
G01*
X172838441Y-189304057D01*
G75*
G02*
X172838441Y-190506139I-601041J-601041D01*
G01*
G37*
G36*
G01*
X176430543Y-190506139D02*
X176430543Y-190506139D01*
G75*
G02*
X175228461Y-190506139I-601041J601041D01*
G01*
X175228461Y-190506139D01*
G75*
G02*
X175228461Y-189304057I601041J601041D01*
G01*
X175228461Y-189304057D01*
G75*
G02*
X176430543Y-189304057I601041J-601041D01*
G01*
X176430543Y-189304057D01*
G75*
G02*
X176430543Y-190506139I-601041J-601041D01*
G01*
G37*
G36*
G01*
X174634492Y-188710087D02*
X174634492Y-188710087D01*
G75*
G02*
X173432410Y-188710087I-601041J601041D01*
G01*
X173432410Y-188710087D01*
G75*
G02*
X173432410Y-187508005I601041J601041D01*
G01*
X173432410Y-187508005D01*
G75*
G02*
X174634492Y-187508005I601041J-601041D01*
G01*
X174634492Y-187508005D01*
G75*
G02*
X174634492Y-188710087I-601041J-601041D01*
G01*
G37*
G36*
G01*
X178226595Y-188710087D02*
X178226595Y-188710087D01*
G75*
G02*
X177024513Y-188710087I-601041J601041D01*
G01*
X177024513Y-188710087D01*
G75*
G02*
X177024513Y-187508005I601041J601041D01*
G01*
X177024513Y-187508005D01*
G75*
G02*
X178226595Y-187508005I601041J-601041D01*
G01*
X178226595Y-187508005D01*
G75*
G02*
X178226595Y-188710087I-601041J-601041D01*
G01*
G37*
G36*
G01*
X176430543Y-186914036D02*
X176430543Y-186914036D01*
G75*
G02*
X175228461Y-186914036I-601041J601041D01*
G01*
X175228461Y-186914036D01*
G75*
G02*
X175228461Y-185711954I601041J601041D01*
G01*
X175228461Y-185711954D01*
G75*
G02*
X176430543Y-185711954I601041J-601041D01*
G01*
X176430543Y-185711954D01*
G75*
G02*
X176430543Y-186914036I-601041J-601041D01*
G01*
G37*
G36*
G01*
X180022646Y-186914036D02*
X180022646Y-186914036D01*
G75*
G02*
X178820564Y-186914036I-601041J601041D01*
G01*
X178820564Y-186914036D01*
G75*
G02*
X178820564Y-185711954I601041J601041D01*
G01*
X178820564Y-185711954D01*
G75*
G02*
X180022646Y-185711954I601041J-601041D01*
G01*
X180022646Y-185711954D01*
G75*
G02*
X180022646Y-186914036I-601041J-601041D01*
G01*
G37*
G36*
G01*
X178226595Y-185117985D02*
X178226595Y-185117985D01*
G75*
G02*
X177024513Y-185117985I-601041J601041D01*
G01*
X177024513Y-185117985D01*
G75*
G02*
X177024513Y-183915903I601041J601041D01*
G01*
X177024513Y-183915903D01*
G75*
G02*
X178226595Y-183915903I601041J-601041D01*
G01*
X178226595Y-183915903D01*
G75*
G02*
X178226595Y-185117985I-601041J-601041D01*
G01*
G37*
%TD*%
D14*
%TO.C,J13*%
X64291000Y-86667000D03*
D10*
X59211000Y-91747000D03*
X59211000Y-81587000D03*
D14*
X64291000Y-89207000D03*
%TD*%
%TO.C,J15*%
X64519600Y-129161200D03*
D10*
X59439600Y-121541200D03*
X59439600Y-131701200D03*
D14*
X64519600Y-126621200D03*
%TD*%
%TO.C,J16*%
X64520000Y-166600800D03*
D10*
X59440000Y-171680800D03*
X59440000Y-161520800D03*
D14*
X64520000Y-169140800D03*
%TD*%
%TO.C,J17*%
X64506900Y-209120400D03*
D10*
X59426900Y-201500400D03*
X59426900Y-211660400D03*
D14*
X64506900Y-206580400D03*
%TD*%
D18*
%TO.C,H1*%
X56640000Y-251266000D03*
X61640000Y-251266000D03*
X61640000Y-258766000D03*
X56640000Y-258766000D03*
%TD*%
%TO.C,H2*%
X56640000Y-48750000D03*
X61640000Y-48750000D03*
X61640000Y-41250000D03*
X56640000Y-41250000D03*
%TD*%
M02*
