M48
; DRILL file {KiCad 5.1.10-88a1d61d58~88~ubuntu20.04.1} date Sat Aug  7 16:27:18 2021
; FORMAT={-:-/ absolute / inch / decimal}
; #@! TF.CreationDate,2021-08-07T16:27:18+02:00
; #@! TF.GenerationSoftware,Kicad,Pcbnew,5.1.10-88a1d61d58~88~ubuntu20.04.1
; #@! TF.FileFunction,Plated,1,2,PTH
FMAT,2
INCH
T1C0.0079
T2C0.0157
T3C0.0315
T4C0.0354
T5C0.0394
T6C0.0512
T7C0.0748
T8C0.0787
T9C0.0866
%
G90
G05
T1
X7.5496Y-8.3025
X7.583Y-8.2691
X7.583Y-8.3359
X7.6164Y-8.2357
X7.6164Y-8.3025
X7.6164Y-8.3693
X7.6498Y-8.2023
X7.6498Y-8.2691
X7.6498Y-8.3359
X7.6498Y-8.4027
X7.6832Y-8.1689
X7.6832Y-8.2357
X7.6832Y-8.3025
X7.6832Y-8.3693
X7.6832Y-8.4361
X7.7166Y-8.1355
X7.7166Y-8.2023
X7.7166Y-8.2691
X7.7166Y-8.3359
X7.7166Y-8.4027
X7.7166Y-8.4695
X7.75Y-8.1021
X7.75Y-8.1689
X7.75Y-8.2357
X7.75Y-8.3025
X7.75Y-8.3693
X7.75Y-8.4361
X7.75Y-8.5029
X7.7834Y-8.1355
X7.7834Y-8.2023
X7.7834Y-8.2691
X7.7834Y-8.3359
X7.7834Y-8.4027
X7.7834Y-8.4695
X7.8168Y-8.1689
X7.8168Y-8.2357
X7.8168Y-8.3025
X7.8168Y-8.3693
X7.8168Y-8.4361
X7.8502Y-8.2023
X7.8502Y-8.2691
X7.8502Y-8.3359
X7.8502Y-8.4027
X7.8836Y-8.2357
X7.8836Y-8.3025
X7.8836Y-8.3693
X7.917Y-8.2691
X7.917Y-8.3359
X7.9504Y-8.3025
T2
X2.7561Y-2.435
X2.7561Y-4.0289
X2.7561Y-5.6011
X2.7561Y-7.1739
X6.14Y-4.0525
X6.249Y-4.202
X6.4569Y-3.9744
X6.53Y-4.0375
X6.66Y-3.945
X6.763Y-4.382
X6.8625Y-4.175
X6.8685Y-4.0755
X6.89Y-4.6515
X6.8952Y-3.9248
X6.9035Y-7.6455
X6.9155Y-3.778
X6.992Y-4.053
X6.995Y-4.0015
X7.028Y-7.649
X7.054Y-8.639
X7.065Y-7.555
X7.094Y-7.583
X7.103Y-8.927
X7.136Y-7.925
X7.1485Y-3.7875
X7.185Y-8.508
X7.218Y-7.459
X7.22Y-8.58
X7.234Y-7.956
X7.239Y-8.076
X7.272Y-4.083
X7.272Y-7.852
X7.2805Y-7.3965
X7.297Y-7.663
X7.312Y-8.392
X7.34Y-7.832
X7.3525Y-8.5735
X7.36Y-9.15
X7.393Y-8.6525
X7.396Y-4.028
X7.402Y-8.608
X7.419Y-7.704
X7.446Y-7.878
X7.478Y-7.578
X7.503Y-8.73
X7.525Y-3.992
X7.637Y-7.758
X7.654Y-4.907
X7.667Y-7.538
X7.703Y-6.4525
X7.75Y-7.718
X7.822Y-3.609
X7.87Y-7.89
X7.875Y-5.029
X7.876Y-6.452
X7.89Y-7.474
X7.8955Y-4.3065
X7.912Y-8.67
X7.99Y-7.882
X8.015Y-4.5425
X8.05Y-6.45
X8.051Y-4.466
X8.06Y-8.848
X8.0603Y-4.8125
X8.08Y-8.502
X8.099Y-7.558
X8.099Y-7.995
X8.148Y-7.763
X8.154Y-8.186
X8.165Y-7.847
X8.2Y-8.376
X8.269Y-7.122
X8.27Y-8.7025
X8.2925Y-8.4375
X8.33Y-8.015
X8.396Y-3.5195
X8.404Y-8.664
X8.43Y-8.265
X8.444Y-8.444
X8.455Y-6.448
X8.473Y-4.891
X8.6Y-5.0475
X8.818Y-9.014
X8.82Y-8.9275
X8.9272Y-3.0906
X9.095Y-9.0575
X9.18Y-8.185
X9.18Y-8.655
X9.21Y-9.05
X9.225Y-7.915
X9.2375Y-9.575
X9.24Y-8.13
X9.27Y-7.995
X9.29Y-8.13
X9.29Y-8.935
X9.34Y-8.935
X9.34Y-9.05
X9.345Y-9.47
X9.365Y-8.465
X9.385Y-9.5475
X9.415Y-8.885
X9.415Y-9.325
X9.4681Y-4.701
X9.4965Y-7.6755
X9.499Y-7.535
X9.59Y-8.17
X9.6Y-8.885
X9.6Y-9.325
X9.65Y-8.635
X9.715Y-8.17
X9.7425Y-2.905
X9.7425Y-3.03
X9.7425Y-7.779
X9.7571Y-3.0911
X9.775Y-8.595
X9.835Y-9.315
X9.84Y-8.17
X9.8446Y-8.736
X9.875Y-3.1375
X9.9Y-8.595
X9.9211Y-2.9981
X9.9286Y-2.9454
X9.9481Y-3.0951
X9.9646Y-8.736
X9.965Y-8.17
X10.025Y-8.595
X10.0359Y-3.1625
X10.0475Y-3.5325
X10.079Y-4.4375
X10.0862Y-3.1026
X10.1Y-3.5
X10.1021Y-2.7556
X10.1021Y-2.9141
X10.1065Y-4.093
X10.1086Y-3.0761
X10.1221Y-2.9871
X10.125Y-3.2175
X10.15Y-8.1705
X10.15Y-8.595
X10.181Y-3.1322
X10.2098Y-3.3434
X10.2151Y-8.7275
X10.2301Y-3.018
X10.275Y-8.213
X10.275Y-8.59
X10.3401Y-8.7305
X10.35Y-9.17
X10.35Y-9.265
X10.35Y-9.36
X10.35Y-9.455
X10.35Y-9.55
X10.4Y-8.404
X10.4Y-8.59
X10.4116Y-7.337
X10.455Y-9.31
X10.465Y-8.1194
X10.525Y-9.485
X10.5526Y-8.9185
T3
X10.6Y-2.1614
X10.6Y-2.2614
X10.6Y-2.3614
X10.6Y-2.4614
X10.6Y-2.5614
X10.6Y-2.6614
X10.6Y-2.7614
X10.6Y-2.8614
X10.6Y-2.9614
X10.6Y-3.0614
X10.6Y-3.1614
X10.6Y-3.2614
X10.6Y-3.3614
X10.6Y-3.4614
X10.6Y-3.5614
X10.6Y-3.6614
X10.6Y-3.7614
X10.6Y-3.8614
X10.6Y-3.9614
X10.6Y-4.0614
X10.6Y-4.1614
X10.6Y-4.2614
X10.6Y-4.3614
X10.6Y-4.4614
X10.6Y-4.5614
X10.6Y-7.1929
X10.6Y-7.2929
X10.6Y-7.3929
X10.6Y-7.4929
X10.6Y-7.5929
X10.6Y-7.6929
X10.6Y-7.7929
X10.6Y-7.8929
X10.6Y-7.9929
X10.6Y-8.0929
X10.6Y-8.1929
X10.6Y-8.2929
X10.6Y-8.3929
X10.6Y-8.4929
X10.6Y-8.5929
X10.6Y-8.6929
X10.6Y-8.7929
X10.6Y-8.8929
X10.6Y-8.9929
X10.6Y-9.0929
X10.6Y-9.1929
X10.6Y-9.2929
X10.6Y-9.3929
X10.6Y-9.4929
X10.6Y-9.5929
X10.675Y-2.2114
X10.675Y-2.3114
X10.675Y-2.4114
X10.675Y-2.5114
X10.675Y-2.6114
X10.675Y-2.7114
X10.675Y-2.8114
X10.675Y-2.9114
X10.675Y-3.0114
X10.675Y-3.1114
X10.675Y-3.2114
X10.675Y-3.3114
X10.675Y-3.4114
X10.675Y-3.5114
X10.675Y-3.6114
X10.675Y-3.7114
X10.675Y-3.8114
X10.675Y-3.9114
X10.675Y-4.0114
X10.675Y-4.1114
X10.675Y-4.2114
X10.675Y-4.3114
X10.675Y-4.4114
X10.675Y-4.5114
X10.675Y-4.6114
X10.675Y-7.2429
X10.675Y-7.3429
X10.675Y-7.4429
X10.675Y-7.5429
X10.675Y-7.6429
X10.675Y-7.7429
X10.675Y-7.8429
X10.675Y-7.9429
X10.675Y-8.0429
X10.675Y-8.1429
X10.675Y-8.2429
X10.675Y-8.3429
X10.675Y-8.4429
X10.675Y-8.5429
X10.675Y-8.6429
X10.675Y-8.7429
X10.675Y-8.8429
X10.675Y-8.9429
X10.675Y-9.0429
X10.675Y-9.1429
X10.675Y-9.2429
X10.675Y-9.3429
X10.675Y-9.4429
X10.675Y-9.5429
X10.675Y-9.6429
X10.75Y-2.1614
X10.75Y-2.2614
X10.75Y-2.3614
X10.75Y-2.4614
X10.75Y-2.5614
X10.75Y-2.6614
X10.75Y-2.7614
X10.75Y-2.8614
X10.75Y-2.9614
X10.75Y-3.0614
X10.75Y-3.1614
X10.75Y-3.2614
X10.75Y-3.3614
X10.75Y-3.4614
X10.75Y-3.5614
X10.75Y-3.6614
X10.75Y-3.7614
X10.75Y-3.8614
X10.75Y-3.9614
X10.75Y-4.0614
X10.75Y-4.1614
X10.75Y-4.2614
X10.75Y-4.3614
X10.75Y-4.4614
X10.75Y-4.5614
X10.75Y-7.1929
X10.75Y-7.2929
X10.75Y-7.3929
X10.75Y-7.4929
X10.75Y-7.5929
X10.75Y-7.6929
X10.75Y-7.7929
X10.75Y-7.8929
X10.75Y-7.9929
X10.75Y-8.0929
X10.75Y-8.1929
X10.75Y-8.2929
X10.75Y-8.3929
X10.75Y-8.4929
X10.75Y-8.5929
X10.75Y-8.6929
X10.75Y-8.7929
X10.75Y-8.8929
X10.75Y-8.9929
X10.75Y-9.0929
X10.75Y-9.1929
X10.75Y-9.2929
X10.75Y-9.3929
X10.75Y-9.4929
X10.75Y-9.5929
X10.825Y-2.2114
X10.825Y-2.3114
X10.825Y-2.4114
X10.825Y-2.5114
X10.825Y-2.6114
X10.825Y-2.7114
X10.825Y-2.8114
X10.825Y-2.9114
X10.825Y-3.0114
X10.825Y-3.1114
X10.825Y-3.2114
X10.825Y-3.3114
X10.825Y-3.4114
X10.825Y-3.5114
X10.825Y-3.6114
X10.825Y-3.7114
X10.825Y-3.8114
X10.825Y-3.9114
X10.825Y-4.0114
X10.825Y-4.1114
X10.825Y-4.2114
X10.825Y-4.3114
X10.825Y-4.4114
X10.825Y-4.5114
X10.825Y-4.6114
X10.825Y-7.2429
X10.825Y-7.3429
X10.825Y-7.4429
X10.825Y-7.5429
X10.825Y-7.6429
X10.825Y-7.7429
X10.825Y-7.8429
X10.825Y-7.9429
X10.825Y-8.0429
X10.825Y-8.1429
X10.825Y-8.2429
X10.825Y-8.3429
X10.825Y-8.4429
X10.825Y-8.5429
X10.825Y-8.6429
X10.825Y-8.7429
X10.825Y-8.8429
X10.825Y-8.9429
X10.825Y-9.0429
X10.825Y-9.1429
X10.825Y-9.2429
X10.825Y-9.3429
X10.825Y-9.4429
X10.825Y-9.5429
X10.825Y-9.6429
T4
X2.5311Y-3.4121
X2.5311Y-3.5121
X2.5361Y-2.625
X2.5361Y-2.725
X2.5396Y-8.1331
X2.5396Y-8.2331
X2.5401Y-4.1991
X2.5401Y-4.2991
X2.5401Y-4.9851
X2.5401Y-5.0851
X2.5401Y-5.7721
X2.5401Y-5.8721
X2.5401Y-7.3461
X2.5401Y-7.4461
X2.5402Y-6.5591
X2.5402Y-6.6591
T5
X2.1571Y-8.9575
X2.1571Y-9.1347
X2.1571Y-9.365
X2.1571Y-9.5422
X6.7103Y-7.5473
X6.781Y-7.4766
X6.781Y-7.618
X6.8517Y-7.4059
X6.8517Y-7.5473
X6.9224Y-7.3352
X6.9224Y-7.4766
X6.9931Y-7.2644
X6.9931Y-7.4059
X7.0638Y-7.3352
X10.0061Y-9.8375
X10.1061Y-9.8375
X10.2061Y-9.8375
X10.3061Y-9.8375
X10.31Y-7.6475
X10.4061Y-9.8375
X10.41Y-7.6475
T6
X2.2575Y-8.9083
X2.2575Y-9.1839
X2.2575Y-9.3158
X2.2575Y-9.5914
T7
X2.2299Y-1.624
X2.2299Y-1.9193
X2.2299Y-9.8924
X2.2299Y-10.1876
X2.4268Y-1.624
X2.4268Y-1.9193
X2.4268Y-9.8924
X2.4268Y-10.1876
T8
X2.3311Y-3.2121
X2.3311Y-3.6121
X2.3361Y-2.425
X2.3361Y-2.825
X2.3396Y-7.9331
X2.3396Y-8.3331
X2.3401Y-3.9991
X2.3401Y-4.3991
X2.3401Y-4.7851
X2.3401Y-5.1851
X2.3401Y-5.5721
X2.3401Y-5.9721
X2.3401Y-7.1461
X2.3401Y-7.5461
X2.3402Y-6.3591
X2.3402Y-6.7591
T9
X10.825Y-1.9614
X10.825Y-4.8114
X10.825Y-6.9929
X10.825Y-9.8429
T0
M30
